<mxfile host="app.diagrams.net" agent="Mozilla/5.0 (Windows NT 10.0; Win64; x64) AppleWebKit/537.36 (KHTML, like Gecko) Chrome/131.0.0.0 Safari/537.36" version="25.0.3">
  <diagram name="Page-1" id="_pyOVSJ7cHJ0JFqWw7aB">
    <mxGraphModel dx="1034" dy="446" grid="1" gridSize="10" guides="1" tooltips="1" connect="1" arrows="1" fold="1" page="1" pageScale="1" pageWidth="827" pageHeight="1169" math="0" shadow="0">
      <root>
        <mxCell id="0" />
        <mxCell id="1" parent="0" />
        <mxCell id="MqbotYCEOSIE-0MyUEJG-35" value="" style="edgeStyle=orthogonalEdgeStyle;rounded=0;orthogonalLoop=1;jettySize=auto;html=1;" edge="1" parent="1" source="MqbotYCEOSIE-0MyUEJG-32" target="MqbotYCEOSIE-0MyUEJG-34">
          <mxGeometry relative="1" as="geometry" />
        </mxCell>
        <mxCell id="MqbotYCEOSIE-0MyUEJG-32" value="start" style="strokeWidth=2;html=1;shape=mxgraph.flowchart.start_1;whiteSpace=wrap;" vertex="1" parent="1">
          <mxGeometry x="364" y="20" width="100" height="60" as="geometry" />
        </mxCell>
        <mxCell id="MqbotYCEOSIE-0MyUEJG-39" value="" style="edgeStyle=orthogonalEdgeStyle;rounded=0;orthogonalLoop=1;jettySize=auto;html=1;" edge="1" parent="1" source="MqbotYCEOSIE-0MyUEJG-34" target="MqbotYCEOSIE-0MyUEJG-38">
          <mxGeometry relative="1" as="geometry" />
        </mxCell>
        <mxCell id="MqbotYCEOSIE-0MyUEJG-34" value="สร้างตัวแปร id , decimal , h , salary" style="whiteSpace=wrap;html=1;strokeWidth=2;" vertex="1" parent="1">
          <mxGeometry x="354" y="160" width="120" height="60" as="geometry" />
        </mxCell>
        <mxCell id="MqbotYCEOSIE-0MyUEJG-41" value="" style="edgeStyle=orthogonalEdgeStyle;rounded=0;orthogonalLoop=1;jettySize=auto;html=1;" edge="1" parent="1" source="MqbotYCEOSIE-0MyUEJG-38" target="MqbotYCEOSIE-0MyUEJG-40">
          <mxGeometry relative="1" as="geometry" />
        </mxCell>
        <mxCell id="MqbotYCEOSIE-0MyUEJG-38" value="แสดงคำว่า Input he Employee ID(Max 10 chars)" style="shape=parallelogram;perimeter=parallelogramPerimeter;whiteSpace=wrap;html=1;fixedSize=1;strokeWidth=2;" vertex="1" parent="1">
          <mxGeometry x="261" y="300" width="306" height="60" as="geometry" />
        </mxCell>
        <mxCell id="MqbotYCEOSIE-0MyUEJG-43" value="" style="edgeStyle=orthogonalEdgeStyle;rounded=0;orthogonalLoop=1;jettySize=auto;html=1;" edge="1" parent="1" source="MqbotYCEOSIE-0MyUEJG-40" target="MqbotYCEOSIE-0MyUEJG-42">
          <mxGeometry relative="1" as="geometry" />
        </mxCell>
        <mxCell id="MqbotYCEOSIE-0MyUEJG-40" value="รับค่าจากผู้ใช้" style="shape=parallelogram;perimeter=parallelogramPerimeter;whiteSpace=wrap;html=1;fixedSize=1;strokeWidth=2;" vertex="1" parent="1">
          <mxGeometry x="354" y="440" width="120" height="60" as="geometry" />
        </mxCell>
        <mxCell id="MqbotYCEOSIE-0MyUEJG-45" value="" style="edgeStyle=orthogonalEdgeStyle;rounded=0;orthogonalLoop=1;jettySize=auto;html=1;" edge="1" parent="1" source="MqbotYCEOSIE-0MyUEJG-42" target="MqbotYCEOSIE-0MyUEJG-44">
          <mxGeometry relative="1" as="geometry" />
        </mxCell>
        <mxCell id="MqbotYCEOSIE-0MyUEJG-42" value="แสดงคำว่า Input the working hrs" style="shape=parallelogram;perimeter=parallelogramPerimeter;whiteSpace=wrap;html=1;fixedSize=1;strokeWidth=2;" vertex="1" parent="1">
          <mxGeometry x="301" y="585" width="226" height="60" as="geometry" />
        </mxCell>
        <mxCell id="MqbotYCEOSIE-0MyUEJG-47" value="" style="edgeStyle=orthogonalEdgeStyle;rounded=0;orthogonalLoop=1;jettySize=auto;html=1;" edge="1" parent="1" source="MqbotYCEOSIE-0MyUEJG-44" target="MqbotYCEOSIE-0MyUEJG-46">
          <mxGeometry relative="1" as="geometry" />
        </mxCell>
        <mxCell id="MqbotYCEOSIE-0MyUEJG-44" value="รับค่าจากผู้ใช้" style="shape=parallelogram;perimeter=parallelogramPerimeter;whiteSpace=wrap;html=1;fixedSize=1;strokeWidth=2;" vertex="1" parent="1">
          <mxGeometry x="354" y="725" width="120" height="60" as="geometry" />
        </mxCell>
        <mxCell id="MqbotYCEOSIE-0MyUEJG-49" value="" style="edgeStyle=orthogonalEdgeStyle;rounded=0;orthogonalLoop=1;jettySize=auto;html=1;" edge="1" parent="1" source="MqbotYCEOSIE-0MyUEJG-46" target="MqbotYCEOSIE-0MyUEJG-48">
          <mxGeometry relative="1" as="geometry" />
        </mxCell>
        <mxCell id="MqbotYCEOSIE-0MyUEJG-46" value="แสดงคำว่า salary amount / hr" style="shape=parallelogram;perimeter=parallelogramPerimeter;whiteSpace=wrap;html=1;fixedSize=1;strokeWidth=2;" vertex="1" parent="1">
          <mxGeometry x="296" y="865" width="236" height="60" as="geometry" />
        </mxCell>
        <mxCell id="MqbotYCEOSIE-0MyUEJG-51" value="" style="edgeStyle=orthogonalEdgeStyle;rounded=0;orthogonalLoop=1;jettySize=auto;html=1;" edge="1" parent="1" source="MqbotYCEOSIE-0MyUEJG-48" target="MqbotYCEOSIE-0MyUEJG-50">
          <mxGeometry relative="1" as="geometry" />
        </mxCell>
        <mxCell id="MqbotYCEOSIE-0MyUEJG-48" value="รับค่าจากผู้ใช้" style="shape=parallelogram;perimeter=parallelogramPerimeter;whiteSpace=wrap;html=1;fixedSize=1;strokeWidth=2;" vertex="1" parent="1">
          <mxGeometry x="354" y="1010" width="120" height="60" as="geometry" />
        </mxCell>
        <mxCell id="MqbotYCEOSIE-0MyUEJG-53" value="" style="edgeStyle=orthogonalEdgeStyle;rounded=0;orthogonalLoop=1;jettySize=auto;html=1;" edge="1" parent="1" source="MqbotYCEOSIE-0MyUEJG-50" target="MqbotYCEOSIE-0MyUEJG-52">
          <mxGeometry relative="1" as="geometry" />
        </mxCell>
        <mxCell id="MqbotYCEOSIE-0MyUEJG-50" value="คำนวณ h * salary" style="whiteSpace=wrap;html=1;strokeWidth=2;" vertex="1" parent="1">
          <mxGeometry x="354" y="1150" width="120" height="60" as="geometry" />
        </mxCell>
        <mxCell id="MqbotYCEOSIE-0MyUEJG-82" value="" style="edgeStyle=orthogonalEdgeStyle;rounded=0;orthogonalLoop=1;jettySize=auto;html=1;" edge="1" parent="1" source="MqbotYCEOSIE-0MyUEJG-52" target="MqbotYCEOSIE-0MyUEJG-81">
          <mxGeometry relative="1" as="geometry" />
        </mxCell>
        <mxCell id="MqbotYCEOSIE-0MyUEJG-52" value="แสดงคำว่า Expeted Output" style="shape=parallelogram;perimeter=parallelogramPerimeter;whiteSpace=wrap;html=1;fixedSize=1;strokeWidth=2;" vertex="1" parent="1">
          <mxGeometry x="311" y="1290" width="206" height="60" as="geometry" />
        </mxCell>
        <mxCell id="MqbotYCEOSIE-0MyUEJG-84" value="" style="edgeStyle=orthogonalEdgeStyle;rounded=0;orthogonalLoop=1;jettySize=auto;html=1;" edge="1" parent="1" source="MqbotYCEOSIE-0MyUEJG-81" target="MqbotYCEOSIE-0MyUEJG-83">
          <mxGeometry relative="1" as="geometry" />
        </mxCell>
        <mxCell id="MqbotYCEOSIE-0MyUEJG-81" value="แสดงคำว่า Employee ID" style="shape=parallelogram;perimeter=parallelogramPerimeter;whiteSpace=wrap;html=1;fixedSize=1;strokeWidth=2;" vertex="1" parent="1">
          <mxGeometry x="326" y="1430" width="176" height="60" as="geometry" />
        </mxCell>
        <mxCell id="MqbotYCEOSIE-0MyUEJG-86" value="" style="edgeStyle=orthogonalEdgeStyle;rounded=0;orthogonalLoop=1;jettySize=auto;html=1;" edge="1" parent="1" source="MqbotYCEOSIE-0MyUEJG-83" target="MqbotYCEOSIE-0MyUEJG-85">
          <mxGeometry relative="1" as="geometry" />
        </mxCell>
        <mxCell id="MqbotYCEOSIE-0MyUEJG-83" value="แสดงคำว่า salary = u$" style="shape=parallelogram;perimeter=parallelogramPerimeter;whiteSpace=wrap;html=1;fixedSize=1;strokeWidth=2;" vertex="1" parent="1">
          <mxGeometry x="321" y="1580" width="186" height="60" as="geometry" />
        </mxCell>
        <mxCell id="MqbotYCEOSIE-0MyUEJG-85" value="end" style="strokeWidth=2;html=1;shape=mxgraph.flowchart.start_1;whiteSpace=wrap;" vertex="1" parent="1">
          <mxGeometry x="364" y="1724" width="100" height="60" as="geometry" />
        </mxCell>
      </root>
    </mxGraphModel>
  </diagram>
</mxfile>
